<svg id="Blocks" xmlns="http://www.w3.org/2000/svg" viewBox="0 0 500 500"><defs><style>.cls-1{fill:#757575;}.cls-2{fill:#fff;}</style></defs><title>Revolution slider block</title><rect class="cls-1" x="133.56" y="135.36" width="231.18" height="231.18" rx="12"/><path class="cls-2" d="M295.85,202.1a67.84,67.84,0,0,0-114.76,46.79c0,.36-.05.72-.05,1.09,0,.12,0,.24,0,.36s0,.49,0,.73h.05A10.68,10.68,0,0,0,202.4,250c0-.26,0-.51,0-.76.95-25.58,21.41-46,46.53-46a45.81,45.81,0,0,1,32.86,13.94l-17.65,17h52.15v-52.9Z"/><path class="cls-2" d="M202.44,299.8A67.83,67.83,0,0,0,317.2,253c0-.36.05-.73.05-1.1,0-.12,0-.24,0-.36s0-.48,0-.72h-.05a10.68,10.68,0,0,0-21.31,1.08c0,.26,0,.51,0,.76-.95,25.58-21.41,46-46.53,46a45.82,45.82,0,0,1-32.86-13.95l17.65-17H182v52.9Z"/></svg>