<svg id="Blocks" xmlns="http://www.w3.org/2000/svg" viewBox="0 0 500 500"><defs><style>.cls-1{fill:#e6e6e6;}.cls-2{fill:#fff;}</style></defs><title>Content slider block 2 copy</title><rect class="cls-1" x="135.24" y="135.36" width="231.18" height="231.18" rx="12"/><path class="cls-2" d="M297.54,202.1a67.84,67.84,0,0,0-114.76,46.79,9.82,9.82,0,0,0-.06,1.09c0,.12,0,.24,0,.36s0,.49,0,.73h.06a10.68,10.68,0,0,0,21.3-1.09c0-.26,0-.51,0-.76.94-25.58,21.4-46,46.52-46a45.78,45.78,0,0,1,32.86,13.94l-17.65,17h52.15v-52.9Z"/><path class="cls-2" d="M204.12,299.8A67.83,67.83,0,0,0,318.88,253a10,10,0,0,0,.05-1.1c0-.12,0-.24,0-.36s0-.48,0-.72h-.05a10.68,10.68,0,0,0-21.3,1.08c0,.26,0,.51,0,.76-.94,25.58-21.41,46-46.52,46a45.79,45.79,0,0,1-32.86-13.95l17.65-17H183.72v52.9Z"/></svg>